<svg width="24" height="24" viewBox="0 0 24 24" fill="none" xmlns="http://www.w3.org/2000/svg">
<g clip-path="url(#clip0_2110_3019)">
<g clip-path="url(#clip1_2110_3019)">
<path d="M12 2C17.51 2 22 6.49 22 12C22 17.51 17.51 22 12 22C6.49 22 2 17.51 2 12C2 6.49 6.49 2 12 2ZM12 0C5.37 0 0 5.37 0 12C0 18.63 5.37 24 12 24C18.63 24 24 18.63 24 12C24 5.37 18.63 0 12 0ZM16.71 7.71L15.3 6.3L12.01 9.59L8.72 6.3L7.31 7.71L12.02 12.42L16.73 7.71H16.71ZM13 11H11V18.93H13V11ZM16 11H8V13H16V11ZM16 14H8V16H16V14Z" fill="white"/>
</g>
</g>
<defs>
<clipPath id="clip0_2110_3019">
<rect width="24" height="24" fill="white"/>
</clipPath>
<clipPath id="clip1_2110_3019">
<rect width="24" height="24" fill="white"/>
</clipPath>
</defs>
</svg>
