<svg width="24" height="24" viewBox="0 0 24 24" fill="none" xmlns="http://www.w3.org/2000/svg">
<g id="icon_message" clip-path="url(#clip0_2110_3006)">
<path id="Vector" d="M6 10C4.9 10 4 10.9 4 12C4 13.1 4.9 14 6 14C7.1 14 8 13.1 8 12C8 10.9 7.1 10 6 10Z" fill="black"/>
<path id="Vector_2" d="M12 10C10.9 10 10 10.9 10 12C10 13.1 10.9 14 12 14C13.1 14 14 13.1 14 12C14 10.9 13.1 10 12 10Z" fill="black"/>
<path id="Vector_3" d="M18 10C16.9 10 16 10.9 16 12C16 13.1 16.9 14 18 14C19.1 14 20 13.1 20 12C20 10.9 19.1 10 18 10Z" fill="black"/>
<path id="Vector_4" d="M12 2C17.51 2 22 6.49 22 12C22 13.7 21.56 15.39 20.72 16.88L20.33 17.57L20.52 18.34L21.25 21.24L18.35 20.51L17.58 20.32L16.89 20.71C15.4 21.55 13.71 21.99 12.01 21.99C6.5 21.99 2.01 17.5 2.01 11.99C2.01 6.48 6.49 2 12 2ZM12 0C5.37 0 0 5.37 0 12C0 18.63 5.37 24 12 24C14.13 24 16.13 23.44 17.86 22.47L24 24L22.47 17.86C23.44 16.13 24 14.13 24 12C24 5.37 18.63 0 12 0Z" fill="black"/>
</g>
<defs>
<clipPath id="clip0_2110_3006">
<rect width="24" height="24" fill="white"/>
</clipPath>
</defs>
</svg>
