<svg width="24" height="24" viewBox="0 0 24 24" fill="none" xmlns="http://www.w3.org/2000/svg">
<g clip-path="url(#clip0_1776_3883)">
<path d="M12 23C5.93 23 1 18.07 1 12C1 5.93 5.93 1 12 1C18.07 1 23 5.93 23 12C23 18.07 18.07 23 12 23ZM12 3C7.04 3 3 7.04 3 12C3 16.96 7.04 21 12 21C16.96 21 21 16.96 21 12C21 7.04 16.96 3 12 3ZM12 4C7.58 4 4 7.58 4 12C4 16.42 7.58 20 12 20C16.42 20 20 16.42 20 12C20 7.58 16.42 4 12 4ZM5.5 12C6.26 15.4 8.6 17.74 12 18.5C8.38 19.38 4.62 15.62 5.5 12ZM7 12C7.78 14.59 9.4 16.22 12 17C9.2 17.87 6.13 14.8 7 12ZM8.5 12C9.3 13.79 10.21 14.71 12 15.5C10.01 16.36 7.64 13.99 8.5 12ZM12 14C10.9 14 10 13.1 10 12C10 10.9 10.9 10 12 10C13.1 10 14 10.9 14 12C14 13.1 13.1 14 12 14ZM15.5 12C14.7 10.21 13.79 9.29 12 8.5C13.99 7.64 16.36 10.01 15.5 12ZM17 12C16.22 9.41 14.6 7.78 12 7C14.8 6.13 17.87 9.2 17 12ZM12 5.5C15.62 4.62 19.38 8.38 18.5 12C17.74 8.6 15.4 6.26 12 5.5ZM2 0C0.9 0 0 0.9 0 2C0 3.1 0.9 4 2 4C3.1 4 4 3.1 4 2C4 0.9 3.1 0 2 0ZM22 0C20.9 0 20 0.9 20 2C20 3.1 20.9 4 22 4C23.1 4 24 3.1 24 2C24 0.9 23.1 0 22 0ZM2 20C0.9 20 0 20.9 0 22C0 23.1 0.9 24 2 24C3.1 24 4 23.1 4 22C4 20.9 3.1 20 2 20ZM22 20C20.9 20 20 20.9 20 22C20 23.1 20.9 24 22 24C23.1 24 24 23.1 24 22C24 20.9 23.1 20 22 20Z" fill="white"/>
</g>
<defs>
<clipPath id="clip0_1776_3883">
<rect width="24" height="24" fill="white"/>
</clipPath>
</defs>
</svg>
