<svg width="24" height="24" viewBox="0 0 24 24" fill="none" xmlns="http://www.w3.org/2000/svg">
<g id="icon_reply" clip-path="url(#clip0_2110_2997)">
<path id="Vector" d="M10.62 10.85L12.91 8.56002L11.5 7.15002L6.79004 11.85L11.5 16.56L12.91 15.15L10.62 12.85H15.21V16.85H17.21V10.85H10.62Z" fill="black"/>
<path id="Vector_2" d="M12 2C17.51 2 22 6.49 22 12C22 13.7 21.56 15.39 20.72 16.88L20.33 17.57L20.52 18.34L21.25 21.24L18.35 20.51L17.58 20.32L16.89 20.71C15.4 21.55 13.71 21.99 12.01 21.99C6.5 21.99 2.01 17.5 2.01 11.99C2.01 6.48 6.49 2 12 2ZM12 0C5.37 0 0 5.37 0 12C0 18.63 5.37 24 12 24C14.13 24 16.13 23.44 17.86 22.47L24 24L22.47 17.86C23.44 16.13 24 14.13 24 12C24 5.37 18.63 0 12 0Z" fill="black"/>
</g>
<defs>
<clipPath id="clip0_2110_2997">
<rect width="24" height="24" fill="white"/>
</clipPath>
</defs>
</svg>
