<svg width="280" height="88" viewBox="0 0 280 88" fill="none" xmlns="http://www.w3.org/2000/svg">
<g filter="url(#filter0_bd_2507_19353)">
<path d="M4 40C4 17.9086 21.9086 0 44 0H236C258.091 0 276 17.9086 276 40C276 62.0914 258.091 80 236 80H44C21.9086 80 4 62.0914 4 40Z" fill="black" fill-opacity="0.16" shape-rendering="crispEdges"/>
<path d="M4.5 40C4.5 18.1848 22.1848 0.5 44 0.5H236C257.815 0.5 275.5 18.1848 275.5 40C275.5 61.8152 257.815 79.5 236 79.5H44C22.1848 79.5 4.5 61.8152 4.5 40Z" stroke="white" stroke-opacity="0.16" shape-rendering="crispEdges"/>
</g>
<g filter="url(#filter1_i_2507_19353)">
<rect x="12" y="8" width="256" height="64" rx="32" fill="#D2FF00"/>
</g>
<path d="M71.58 31.52H76.08V33.62H73.7V48.82H71.58V31.52ZM74.96 31.52H77.08V43.74C77.08 44.6 76.98 45.28 76.46 45.68C75.96 46.06 75.4 46.12 74.54 46.12C74.5 45.5 74.22 44.5 73.92 43.92C74.3 43.92 74.62 43.92 74.78 43.92C74.9 43.92 74.96 43.88 74.96 43.68V31.52ZM65.16 30.02L67.24 30.42C66.76 32.62 65.94 34.86 65 36.28C64.6 35.96 63.7 35.42 63.18 35.16C64.1 33.9 64.8 31.94 65.16 30.02ZM65.56 32.04H71.06V34.16H64.92L65.56 32.04ZM63.9 36.54H71.12V38.7H63.9V36.54ZM67.96 40.48H71.04V42.5H67.96V40.48ZM64.18 39.82H66.02V46.18L64.18 46.54V39.82ZM63.24 45.66C65.24 45.48 68.3 45.12 71.22 44.76L71.28 46.74C68.64 47.16 65.84 47.54 63.72 47.82L63.24 45.66ZM67 32.94H69.08V45.88L67 46.26V32.94ZM61.68 30L63.84 30.82C62.74 32.56 61.08 34.44 59.56 35.68C59.28 35.18 58.72 34.28 58.36 33.84C59.6 32.86 61 31.26 61.68 30ZM62 34.22L64.08 34.96C62.94 37.4 61.14 40.08 59.48 41.76C59.26 41.26 58.6 40.1 58.22 39.58C59.62 38.24 61.1 36.22 62 34.22ZM60.64 38.6L62.8 36.42V36.44V48.8H60.64V38.6ZM88.58 30.4H91.06V44.94C91.06 46.08 91.16 46.24 91.94 46.24C92.3 46.24 93.86 46.24 94.24 46.24C95.04 46.24 95.18 45.52 95.3 42.7C95.88 43.12 96.88 43.58 97.56 43.72C97.28 47.24 96.66 48.56 94.48 48.56C93.96 48.56 92.08 48.56 91.58 48.56C89.26 48.56 88.58 47.76 88.58 44.92V30.4ZM79 33.72H85.64V35.9H79V33.72ZM82.02 40.56L84.4 37.72V48.82H82.02V40.56ZM82.02 30.04H84.4V34.74H82.02V30.04ZM84.16 38.16C84.92 38.68 87.28 40.8 87.86 41.32L86.38 43.28C85.56 42.2 83.8 40.26 82.86 39.34L84.16 38.16ZM85 33.72H85.46L85.88 33.64L87.22 34.52C85.66 38.5 82.5 42.02 79.4 43.88C79.2 43.24 78.62 42.06 78.26 41.6C81.1 40.12 83.86 37.16 85 34.16V33.72ZM104.46 33.1V35.8H111.5V33.1H104.46ZM102.14 30.82H113.96V38.08H102.14V30.82ZM99.4 39.76H107.04V48.68H104.64V42.04H101.66V48.8H99.4V39.76ZM108.74 39.76H116.66V48.7H114.24V42.04H111.04V48.8H108.74V39.76ZM100.4 45.5H105.64V47.8H100.4V45.5ZM109.84 45.5H115.44V47.8H109.84V45.5ZM127.72 30.96C127.56 31.7 127.3 32.88 126.74 34.32C126.32 35.3 125.74 36.44 125.18 37.24C125.72 37 126.78 36.86 127.46 36.86C129.12 36.86 130.38 37.84 130.38 39.7C130.38 40.78 130.44 42.96 130.46 44.22H128.06C128.14 43.28 128.18 41.58 128.16 40.5C128.16 39.22 127.36 38.8 126.52 38.8C125.42 38.8 124.16 39.46 123.4 40.18C122.8 40.78 122.24 41.5 121.56 42.38L119.42 40.78C121.98 38.42 123.52 36.26 124.36 34.06C124.76 32.98 125.02 31.76 125.08 30.74L127.72 30.96ZM120.18 32.82C121.2 32.96 122.68 33.04 123.7 33.04C126.34 33.04 129.96 32.9 132.86 32.38L132.84 34.7C130.02 35.1 126 35.28 123.56 35.28C122.74 35.28 121.28 35.24 120.18 35.14V32.82ZM136.02 38.5C135.4 38.68 134.32 39.08 133.64 39.34C132.34 39.84 130.54 40.56 128.66 41.52C126.84 42.46 125.86 43.32 125.86 44.42C125.86 45.52 126.82 45.82 128.76 45.82C130.46 45.82 132.7 45.6 134.46 45.24L134.38 47.82C133.04 48 130.6 48.18 128.7 48.18C125.58 48.18 123.24 47.4 123.24 44.82C123.24 42.04 126.1 40.4 128.5 39.2C130.34 38.24 131.6 37.76 132.8 37.2C133.58 36.86 134.28 36.54 135.04 36.16L136.02 38.5ZM139.24 35.76H156.78V40.14H154.42V37.84H141.48V40.14H139.24V35.76ZM142.14 39.38H152.68V41.58H142.14V39.38ZM154.42 29.9L156.04 31.84C151.52 32.72 145.28 33.16 139.96 33.32C139.92 32.72 139.64 31.8 139.42 31.28C144.72 31.1 150.74 30.62 154.42 29.9ZM141.18 33.7L143.28 33.12C143.74 33.84 144.24 34.8 144.42 35.46L142.22 36.12C142.06 35.46 141.6 34.46 141.18 33.7ZM146.46 33.28L148.58 32.8C149 33.6 149.4 34.68 149.5 35.4L147.26 35.94C147.18 35.24 146.84 34.12 146.46 33.28ZM152.82 32.76L155.36 33.36C154.66 34.6 153.86 35.9 153.26 36.76L151.3 36.18C151.84 35.22 152.48 33.8 152.82 32.76ZM151.8 39.38H152.3L152.72 39.3L154.34 40.26C151.96 45.5 146.48 47.72 140.18 48.62C139.94 48.02 139.26 46.96 138.78 46.46C144.94 45.84 150 44.02 151.8 39.76V39.38ZM144.5 41C146.74 44.04 151.32 45.78 157.14 46.32C156.64 46.86 155.98 47.9 155.68 48.58C149.66 47.8 145.2 45.7 142.4 41.86L144.5 41ZM173.56 31.1C173.48 31.54 173.46 32.02 173.46 32.48C173.42 33.4 173.46 37.18 173.46 38.36C173.46 43.06 173.1 45.98 169.12 48.5L166.8 46.7C167.58 46.36 168.58 45.72 169.14 45.1C170.66 43.5 171 41.7 171 38.34C171 36.84 170.96 33.6 170.86 32.48C170.82 32 170.72 31.42 170.64 31.1H173.56ZM165.66 35.02C166.64 35.16 167.62 35.22 168.7 35.22C171.28 35.22 174.48 35.04 176.44 34.68V37.28C174.54 37.5 171.46 37.66 168.76 37.66C167.88 37.66 166.66 37.6 165.66 37.54V35.02ZM163.6 31.44C163.44 31.94 163.24 32.66 163.14 33.08C162.64 35.3 161.92 39.5 162.46 41.98C162.72 41.36 163.1 40.38 163.42 39.66L164.68 40.46C164.08 42.18 163.56 44.18 163.32 45.32C163.24 45.64 163.18 46.08 163.2 46.3C163.2 46.52 163.22 46.86 163.24 47.14L161 47.36C160.56 46.14 159.86 43.36 159.86 40.88C159.86 37.6 160.26 34.52 160.52 32.88C160.6 32.34 160.62 31.66 160.64 31.16L163.6 31.44ZM188.38 32.58H195.2V34.92H188.38V32.58ZM178.84 31.14H188.94V33.36H178.84V31.14ZM181.48 35.28H186.3V37.42H181.48V35.28ZM181.48 39.44H186.3V41.58H181.48V39.44ZM194.54 32.58H194.96L195.38 32.52L196.94 32.9C196.16 41 193.54 45.92 189.02 48.68C188.66 48.06 187.98 47.16 187.44 46.7C191.42 44.62 193.88 39.7 194.54 33.1V32.58ZM190.72 34.98C191.7 40.18 193.84 44.6 197.68 46.68C197.14 47.14 196.4 48.06 196.02 48.68C191.82 46.14 189.68 41.46 188.42 35.42L190.72 34.98ZM180.22 32.06H182.5V45.14H180.22V32.06ZM185.36 32.06H187.68V48.8H185.36V32.06ZM178.38 44.26C180.36 44.04 183.34 43.64 186.16 43.24L186.3 45.42C183.7 45.88 180.92 46.32 178.82 46.64L178.38 44.26ZM202.4 31.78C202.96 31.84 203.64 31.88 204.2 31.88C205.28 31.88 209.54 31.78 210.68 31.68C211.52 31.62 211.98 31.54 212.22 31.46L213.5 33.26C213.04 33.56 212.56 33.84 212.12 34.18C211.04 34.94 208.94 36.7 207.66 37.7C208.34 37.52 208.94 37.48 209.56 37.48C212.96 37.48 215.54 39.6 215.54 42.5C215.54 45.66 213.14 48.16 208.3 48.16C205.52 48.16 203.42 46.9 203.42 44.88C203.42 43.26 204.9 41.78 207.02 41.78C209.76 41.78 211.28 43.62 211.34 45.82L209 46.12C208.96 44.68 208.2 43.68 207.02 43.68C206.28 43.68 205.78 44.14 205.78 44.66C205.78 45.4 206.6 45.9 207.82 45.9C211.2 45.9 212.92 44.62 212.92 42.48C212.92 40.66 211.12 39.44 208.78 39.44C205.7 39.44 203.72 41.08 201.58 43.5L199.76 41.62C201.18 40.5 203.6 38.46 204.76 37.48C205.88 36.56 207.98 34.88 208.96 34C207.94 34.04 205.18 34.14 204.1 34.22C203.56 34.26 202.94 34.3 202.48 34.38L202.4 31.78Z" fill="black"/>
<defs>
<filter id="filter0_bd_2507_19353" x="-60" y="-64" width="400" height="208" filterUnits="userSpaceOnUse" color-interpolation-filters="sRGB">
<feFlood flood-opacity="0" result="BackgroundImageFix"/>
<feGaussianBlur in="BackgroundImageFix" stdDeviation="32"/>
<feComposite in2="SourceAlpha" operator="in" result="effect1_backgroundBlur_2507_19353"/>
<feColorMatrix in="SourceAlpha" type="matrix" values="0 0 0 0 0 0 0 0 0 0 0 0 0 0 0 0 0 0 127 0" result="hardAlpha"/>
<feOffset dy="4"/>
<feGaussianBlur stdDeviation="2"/>
<feComposite in2="hardAlpha" operator="out"/>
<feColorMatrix type="matrix" values="0 0 0 0 0 0 0 0 0 0 0 0 0 0 0 0 0 0 0.16 0"/>
<feBlend mode="soft-light" in2="effect1_backgroundBlur_2507_19353" result="effect2_dropShadow_2507_19353"/>
<feBlend mode="normal" in="SourceGraphic" in2="effect2_dropShadow_2507_19353" result="shape"/>
</filter>
<filter id="filter1_i_2507_19353" x="12" y="8" width="256" height="64" filterUnits="userSpaceOnUse" color-interpolation-filters="sRGB">
<feFlood flood-opacity="0" result="BackgroundImageFix"/>
<feBlend mode="normal" in="SourceGraphic" in2="BackgroundImageFix" result="shape"/>
<feColorMatrix in="SourceAlpha" type="matrix" values="0 0 0 0 0 0 0 0 0 0 0 0 0 0 0 0 0 0 127 0" result="hardAlpha"/>
<feMorphology radius="1" operator="erode" in="SourceAlpha" result="effect1_innerShadow_2507_19353"/>
<feOffset/>
<feComposite in2="hardAlpha" operator="arithmetic" k2="-1" k3="1"/>
<feColorMatrix type="matrix" values="0 0 0 0 1 0 0 0 0 1 0 0 0 0 1 0 0 0 0.32 0"/>
<feBlend mode="soft-light" in2="shape" result="effect1_innerShadow_2507_19353"/>
</filter>
</defs>
</svg>
