<svg width="48" height="48" viewBox="0 0 48 48" fill="none" xmlns="http://www.w3.org/2000/svg">
<rect width="48" height="48" rx="24" fill="#D2FF00"/>
<g clip-path="url(#clip0_2644_5389)">
<path d="M22.62 22.85L24.91 20.56L23.5 19.15L18.79 23.85L23.5 28.56L24.91 27.15L22.62 24.85H27.21V28.85H29.21V22.85H22.62Z" fill="black"/>
<path d="M24 14C29.51 14 34 18.49 34 24C34 25.7 33.56 27.39 32.72 28.88L32.33 29.57L32.52 30.34L33.25 33.24L30.35 32.51L29.58 32.32L28.89 32.71C27.4 33.55 25.71 33.99 24.01 33.99C18.5 33.99 14.01 29.5 14.01 23.99C14.01 18.48 18.49 14 24 14ZM24 12C17.37 12 12 17.37 12 24C12 30.63 17.37 36 24 36C26.13 36 28.13 35.44 29.86 34.47L36 36L34.47 29.86C35.44 28.13 36 26.13 36 24C36 17.37 30.63 12 24 12Z" fill="black"/>
</g>
<defs>
<clipPath id="clip0_2644_5389">
<rect width="24" height="24" fill="white" transform="translate(12 12)"/>
</clipPath>
</defs>
</svg>
