<svg width="64" height="64" viewBox="0 0 64 64" fill="none" xmlns="http://www.w3.org/2000/svg">
<rect width="64" height="64" rx="32" fill="white"/>
<path d="M43 27H38.44C38.78 26.41 39 25.73 39 25C39 22.79 37.21 21 35 21C33.8 21 32.73 21.54 32 22.38C31.27 21.54 30.2 21 29 21C26.79 21 25 22.79 25 25C25 25.73 25.21 26.41 25.56 27H21V33H23V43H41V33H43V27ZM35 23C36.1 23 37 23.9 37 25C37 26.1 36.1 27 35 27H33V25C33 23.9 33.9 23 35 23ZM27 25C27 23.9 27.9 23 29 23C30.1 23 31 23.9 31 25V27H29C27.9 27 27 26.1 27 25ZM23 29H31V31H23V29ZM25 33H31V41H25V33ZM39 41H33V33H39V41ZM41 31H33V29H41V31Z" fill="black"/>
</svg>
