<svg width="256" height="256" viewBox="0 0 256 256" fill="none" xmlns="http://www.w3.org/2000/svg">
<g filter="url(#filter0_i_2507_19398)">
<rect width="256" height="256" rx="128" fill="#D2FF00" fill-opacity="0.25"/>
</g>
<g filter="url(#filter1_i_2507_19398)">
<rect x="16" y="16" width="224" height="224" rx="112" fill="#D2FF00" fill-opacity="0.5"/>
</g>
<g filter="url(#filter2_i_2507_19398)">
<rect x="32" y="32" width="192" height="192" rx="96" fill="#D2FF00"/>
</g>
<path d="M150 118H140.88C141.56 116.82 142 115.46 142 114C142 109.58 138.42 106 134 106C131.6 106 129.46 107.08 128 108.76C126.54 107.08 124.4 106 122 106C117.58 106 114 109.58 114 114C114 115.46 114.42 116.82 115.12 118H106V130H110V150H146V130H150V118ZM134 110C136.2 110 138 111.8 138 114C138 116.2 136.2 118 134 118H130V114C130 111.8 131.8 110 134 110ZM118 114C118 111.8 119.8 110 122 110C124.2 110 126 111.8 126 114V118H122C119.8 118 118 116.2 118 114ZM110 122H126V126H110V122ZM114 130H126V146H114V130ZM142 146H130V130H142V146ZM146 126H130V122H146V126Z" fill="black"/>
<defs>
<filter id="filter0_i_2507_19398" x="0" y="0" width="256" height="256" filterUnits="userSpaceOnUse" color-interpolation-filters="sRGB">
<feFlood flood-opacity="0" result="BackgroundImageFix"/>
<feBlend mode="normal" in="SourceGraphic" in2="BackgroundImageFix" result="shape"/>
<feColorMatrix in="SourceAlpha" type="matrix" values="0 0 0 0 0 0 0 0 0 0 0 0 0 0 0 0 0 0 127 0" result="hardAlpha"/>
<feMorphology radius="1" operator="erode" in="SourceAlpha" result="effect1_innerShadow_2507_19398"/>
<feOffset/>
<feComposite in2="hardAlpha" operator="arithmetic" k2="-1" k3="1"/>
<feColorMatrix type="matrix" values="0 0 0 0 1 0 0 0 0 1 0 0 0 0 1 0 0 0 0.32 0"/>
<feBlend mode="soft-light" in2="shape" result="effect1_innerShadow_2507_19398"/>
</filter>
<filter id="filter1_i_2507_19398" x="16" y="16" width="224" height="224" filterUnits="userSpaceOnUse" color-interpolation-filters="sRGB">
<feFlood flood-opacity="0" result="BackgroundImageFix"/>
<feBlend mode="normal" in="SourceGraphic" in2="BackgroundImageFix" result="shape"/>
<feColorMatrix in="SourceAlpha" type="matrix" values="0 0 0 0 0 0 0 0 0 0 0 0 0 0 0 0 0 0 127 0" result="hardAlpha"/>
<feMorphology radius="1" operator="erode" in="SourceAlpha" result="effect1_innerShadow_2507_19398"/>
<feOffset/>
<feComposite in2="hardAlpha" operator="arithmetic" k2="-1" k3="1"/>
<feColorMatrix type="matrix" values="0 0 0 0 1 0 0 0 0 1 0 0 0 0 1 0 0 0 0.32 0"/>
<feBlend mode="soft-light" in2="shape" result="effect1_innerShadow_2507_19398"/>
</filter>
<filter id="filter2_i_2507_19398" x="32" y="32" width="192" height="192" filterUnits="userSpaceOnUse" color-interpolation-filters="sRGB">
<feFlood flood-opacity="0" result="BackgroundImageFix"/>
<feBlend mode="normal" in="SourceGraphic" in2="BackgroundImageFix" result="shape"/>
<feColorMatrix in="SourceAlpha" type="matrix" values="0 0 0 0 0 0 0 0 0 0 0 0 0 0 0 0 0 0 127 0" result="hardAlpha"/>
<feMorphology radius="1" operator="erode" in="SourceAlpha" result="effect1_innerShadow_2507_19398"/>
<feOffset/>
<feComposite in2="hardAlpha" operator="arithmetic" k2="-1" k3="1"/>
<feColorMatrix type="matrix" values="0 0 0 0 1 0 0 0 0 1 0 0 0 0 1 0 0 0 0.32 0"/>
<feBlend mode="soft-light" in2="shape" result="effect1_innerShadow_2507_19398"/>
</filter>
</defs>
</svg>
